<svg xmlns="http://www.w3.org/2000/svg" viewBox="0 0 2000 2000" width="100%" height="100%">
  <!-- Pink Background -->
  <rect width="2000" height="2000" fill="#F88ACE" />
  
  <!-- Black Rounded Square in Center -->
  <!-- Start X is 200, Start Y is 200, Box is 1600x1600 with 240px rounded corners -->
  <rect x="200" y="200" width="1600" height="1600" rx="240" ry="240" fill="#000000" />
  
  <!-- Traced White Letters "pb" -->
  <path d="M 1052.500 441.607 C 1018.261 444.752, 1001.693 449.096, 980.041 460.606 C 961.220 470.610, 941.642 487.940, 929 505.785 C 922.834 514.489, 922.325 514.949, 919.106 514.730 L 915.711 514.500 907.868 488 C 903.554 473.425, 899.331 459.137, 898.484 456.250 L 896.944 451 841.972 451 L 787 451 787 1004.509 L 787 1558.018 838.666 1557.759 L 890.332 1557.500 901.522 1530.500 L 912.711 1503.500 916.790 1503.196 C 920.827 1502.895, 921.016 1503.039, 935.184 1517.265 C 950.785 1532.929, 960.964 1540.451, 978.395 1549.198 C 1007.307 1563.707, 1045.238 1569.723, 1081.250 1565.510 C 1105.587 1562.663, 1120.164 1558.548, 1139.500 1549.067 C 1182.380 1528.041, 1215.375 1486.536, 1232.956 1431.505 C 1244.290 1396.030, 1249.372 1358.413, 1249.372 1310 C 1249.372 1279.216, 1248.292 1263.673, 1244.372 1238.067 C 1235.737 1181.653, 1215.167 1135.457, 1184.159 1102.847 C 1152.897 1069.968, 1113.813 1053.925, 1064.500 1053.729 C 1037.932 1053.623, 1017.450 1056.938, 997.783 1064.528 C 967.303 1076.289, 944.387 1095.028, 923.802 1125.026 C 922.201 1127.360, 922.102 1120.778, 922.052 1009.022 L 922 890.544 925.141 894.522 C 930.941 901.866, 948.549 918.446, 956.837 924.367 C 1005.820 959.362, 1083.376 964.614, 1139.500 936.737 C 1148.220 932.406, 1161.386 923.663, 1170.033 916.463 C 1212.929 880.741, 1239.788 820.533, 1247.640 742.500 C 1249.634 722.683, 1249.910 674.125, 1248.138 655 C 1241.254 580.694, 1219.505 525.564, 1182.466 488.532 C 1157.633 463.703, 1129.709 449.574, 1094.500 444.024 C 1082.722 442.167, 1060.389 440.882, 1052.500 441.607 M 1004.500 549.676 C 963.952 554.765, 941.143 574.837, 929.840 615.377 C 923.929 636.579, 921.522 664.329, 922.286 702.481 C 923.598 767.968, 933.479 801.591, 958.113 824.398 C 970.719 836.070, 987.309 842.658, 1010.075 845.035 C 1034.448 847.579, 1056.205 841.770, 1072.284 828.423 C 1093.455 810.850, 1106.869 777.005, 1110.953 730.850 C 1112.522 713.126, 1112.301 673.301, 1110.543 656.863 C 1103.624 592.180, 1080.759 558.615, 1038.140 550.577 C 1030.520 549.140, 1012.598 548.660, 1004.500 549.676 M 1004.500 1161.676 C 988.057 1163.740, 975.375 1167.962, 964.736 1174.914 C 945.341 1187.590, 934.120 1206.571, 927.650 1237.646 C 923.255 1258.755, 922.495 1269.057, 922.569 1306.500 C 922.641 1343.228, 923.570 1355.151, 928.101 1377.500 C 936.201 1417.453, 955.214 1442.381, 985.273 1452.459 C 1001.788 1457.996, 1025.710 1459.325, 1040.500 1455.529 C 1050.001 1453.090, 1063.757 1445.753, 1070.937 1439.296 C 1089.629 1422.486, 1102.899 1394.747, 1108.394 1361 C 1111.138 1344.145, 1112.045 1330.973, 1112.045 1308 C 1112.045 1284.987, 1111.111 1271.409, 1108.431 1255.500 C 1098.120 1194.296, 1065.777 1160.482, 1018.185 1161.150 C 1012.308 1161.232, 1006.150 1161.469, 1004.500 1161.676" fill="#FFFFFF" fill-rule="evenodd" />
</svg>